<svg xmlns="http://www.w3.org/2000/svg" width="513.312" height="327.454" viewBox="0 0 513.312 327.454"><defs><style>.a{fill:#e6f5fa;}.b{fill:#646ef9;stroke:#fff;stroke-linejoin:round;stroke-width:1.293px;}.b,.r{stroke-linecap:round;}.c{fill:#0083c8;}.d,.g,.o{fill:#fff;}.e{fill:#ffcc05;}.f{fill:#6fc7bf;}.g,.n,.o{stroke:#212b47;}.h{fill:#01f7cf;}.i{fill:#08101c;}.j{fill:#111d36;}.k{fill:#006ab8;}.l,.n,.p{fill:none;}.l{stroke:#005a94;stroke-width:1.368px;}.l,.n,.o,.p,.r{stroke-miterlimit:10;}.m{fill:#212b47;}.n{stroke-width:1.083px;}.p{stroke:#00678d;stroke-width:1.458px;}.q{fill:#608df7;}.r{fill:#5177d1;stroke:#6cbaf4;stroke-width:5px;}</style></defs><g transform="translate(-645.628 -113.737)"><g transform="translate(704.783 149.284)"><path class="a" d="M1122.452,353.971c0-98.5-81.3-178.345-181.581-178.345S759.29,255.474,759.29,353.971a175.568,175.568,0,0,0,38.379,109.659h286.4A175.567,175.567,0,0,0,1122.452,353.971Z" transform="translate(-759.29 -175.626)"></path></g><path class="b" d="M1237.675,138.283h22.3a2.063,2.063,0,0,1,2.068,2.059v10.739a2.063,2.063,0,0,1-2.068,2.059h-11.5l-6.836,5.753v-5.449l-4.005-.111a2.064,2.064,0,0,1-2.026-2.059V140.342A2.063,2.063,0,0,1,1237.675,138.283Z" transform="translate(-257.244 -10.448)"></path><path class="c" d="M941.7,138.075a.426.426,0,0,0,.747-.273l-.026-8.086V116.632a2.921,2.921,0,0,0-2.947-2.895H903.605a2.921,2.921,0,0,0-2.947,2.895v14.2a2.921,2.921,0,0,0,2.947,2.894h34.3Z" transform="translate(-114.678)"></path><g transform="translate(796.524 122.042)"><path class="d" d="M922.6,130.033a1.793,1.793,0,1,1-1.8-1.755A1.777,1.777,0,0,1,922.6,130.033Z" transform="translate(-919.016 -128.231)"></path><path class="d" d="M935.984,129.992a1.792,1.792,0,1,1-1.8-1.755A1.776,1.776,0,0,1,935.984,129.992Z" transform="translate(-924.713 -128.213)"></path><path class="d" d="M949.368,129.951a1.792,1.792,0,1,1-1.8-1.755A1.776,1.776,0,0,1,949.368,129.951Z" transform="translate(-930.409 -128.196)"></path></g><g transform="translate(1056.272 120.491)"><path class="c" d="M6.624,0H48.295a6.624,6.624,0,0,1,6.624,6.624v37.8a6.624,6.624,0,0,1-6.624,6.624H8.737A8.737,8.737,0,0,1,0,42.307V6.624A6.624,6.624,0,0,1,6.624,0Z"></path><g transform="translate(14.371 10.942)"><path class="d" d="M1421.9,163.3l-3.26-3.2a2.88,2.88,0,0,0-2.1-.972,3.042,3.042,0,0,0-2.1.915l-1.863,1.829-.349-.172a5.535,5.535,0,0,1-.582-.285,19.984,19.984,0,0,1-4.831-4.345,10.368,10.368,0,0,1-1.514-2.344c.466-.4.873-.858,1.281-1.258l.524-.515a2.756,2.756,0,0,0,0-4.231l-1.63-1.6a5.186,5.186,0,0,1-.524-.572l-1.106-1.086a3.042,3.042,0,0,0-2.1-.915,2.908,2.908,0,0,0-2.1.915l-2.037,2a4.562,4.562,0,0,0-1.339,2.8,10.254,10.254,0,0,0,.756,4.345,23.311,23.311,0,0,0,4.54,7.489,28.216,28.216,0,0,0,9.313,7.146,15.669,15.669,0,0,0,5.239,1.544h.407a4.664,4.664,0,0,0,3.493-1.486l.058-.057a8.825,8.825,0,0,1,1.048-1.029l.757-.743A2.834,2.834,0,0,0,1421.9,163.3Zm-1.339,2.973-.7.686c-.408.343-.757.743-1.164,1.144a2.792,2.792,0,0,1-2.1.858h-.291a12.433,12.433,0,0,1-4.54-1.372,26.437,26.437,0,0,1-8.673-6.689,24.706,24.706,0,0,1-4.249-6.918,6.969,6.969,0,0,1-.7-3.545,2.394,2.394,0,0,1,.814-1.658l1.979-1.944a1.229,1.229,0,0,1,.815-.4,1.119,1.119,0,0,1,.815.4l1.048,1.029a5.457,5.457,0,0,0,.582.572l1.63,1.6a1.331,1.331,0,0,1,.407.8,1.193,1.193,0,0,1-.407.8l-.524.514-1.455,1.43-.058.057a1.237,1.237,0,0,0-.349,1.43v.057a13.148,13.148,0,0,0,1.921,3.087,21.448,21.448,0,0,0,5.3,4.745,4.808,4.808,0,0,0,.756.4,5.484,5.484,0,0,1,.583.286l.058.057a1.353,1.353,0,0,0,1.63-.286l2.037-2a.971.971,0,0,1,1.572,0l3.259,3.2A1.07,1.07,0,0,1,1420.561,166.273Z" transform="translate(-1396.27 -144.548)"></path></g></g><g transform="translate(645.628 153.904)"><path class="e" d="M7.424,0H54.13a7.424,7.424,0,0,1,7.424,7.424V49.787a7.424,7.424,0,0,1-7.424,7.424H9.792A9.792,9.792,0,0,1,0,47.418V7.424A7.424,7.424,0,0,1,7.424,0Z"></path><g transform="translate(14.236 12.033)"><path class="d" d="M685.908,209.361a16.131,16.131,0,0,0,0,23.014,16.849,16.849,0,0,0,23.431,0,16.131,16.131,0,0,0,0-23.014A16.848,16.848,0,0,0,685.908,209.361ZM709.3,211.7h-5.28a32.7,32.7,0,0,0-2.053-4.888A14.985,14.985,0,0,1,709.3,211.7Zm-17.762,8.212a25.85,25.85,0,0,1,.785-6.309h10.6a25.9,25.9,0,0,1,.785,6.309Zm12.1,1.9a30.487,30.487,0,0,1-1.138,6.309h-9.761a30.419,30.419,0,0,1-1.138-6.309Zm-6.019-15.633a15.339,15.339,0,0,1,2.341.179,29.65,29.65,0,0,1,2.4,5.339H692.88a29.6,29.6,0,0,1,2.4-5.339A15.33,15.33,0,0,1,697.623,206.187Zm-4.344.63a32.623,32.623,0,0,0-2.053,4.888h-5.28A14.975,14.975,0,0,1,693.279,206.817Zm-8.65,6.791h6.047a27.846,27.846,0,0,0-.847,6.309h-7.122A14.413,14.413,0,0,1,684.629,213.608Zm0,14.521a14.4,14.4,0,0,1-1.922-6.309h7.152a30.043,30.043,0,0,0,1.009,6.309Zm1.316,1.9h5.494a39.112,39.112,0,0,0,2.042,4.946A14.98,14.98,0,0,1,685.946,230.031Zm11.677,5.518a15.286,15.286,0,0,1-1.958-.125,43.454,43.454,0,0,1-2.317-5.393h8.55a43.6,43.6,0,0,1-2.316,5.393A15.3,15.3,0,0,1,697.623,235.549Zm4.141-.571a38.951,38.951,0,0,0,2.042-4.946H709.3A14.979,14.979,0,0,1,701.764,234.978Zm8.853-6.849h-6.239a30.1,30.1,0,0,0,1.009-6.309h7.151A14.4,14.4,0,0,1,710.617,228.129Zm1.922-8.212h-7.122a27.846,27.846,0,0,0-.847-6.309h6.047A14.411,14.411,0,0,1,712.539,219.916Z" transform="translate(-681.082 -204.621)"></path></g></g><g transform="translate(1100.288 271.958)"><path class="f" d="M7.074,0h44.5a7.074,7.074,0,0,1,7.074,7.074V47.439a7.074,7.074,0,0,1-7.074,7.074H9.331A9.331,9.331,0,0,1,0,45.182V7.074A7.074,7.074,0,0,1,7.074,0Z"></path><g transform="translate(17.5 11.435)"><path class="d" d="M1500.345,423.723a7.123,7.123,0,1,0-7.121,6.995A7.059,7.059,0,0,0,1500.345,423.723Zm-12.463,0a5.342,5.342,0,1,1,5.341,5.246A5.294,5.294,0,0,1,1487.883,423.723Z" transform="translate(-1481.651 -412.356)"></path><path class="d" d="M1489.207,441.109a.9.9,0,0,0,1.244.19.891.891,0,0,0,.193-.19c.072-.1.411-.553.925-1.272l5.255-7.983c2.441-4.09,4.674-8.589,4.674-11.372a11.574,11.574,0,0,0-23.145,0c0,2.7,2.106,7.024,4.464,11.017l5.467,8.341C1488.8,440.558,1489.135,441.012,1489.207,441.109Zm.719-30.244a9.706,9.706,0,0,1,9.792,9.618c0,4.184-6.509,14.066-9.792,18.613-3.283-4.547-9.792-14.429-9.792-18.613A9.706,9.706,0,0,1,1489.925,410.865Z" transform="translate(-1478.353 -409.116)"></path></g></g><path class="g" d="M-6046.779-5932.791c-14.209-6.935-30.877-18.138-36.15-21.759-3.931,1.446-17.818,5.7-23.442-3.907l27.159-6.621-.394,1.495c15.1,6.67,20.112,9.4,31.456,13.468a353.431,353.431,0,0,1,22.094-44.3l14.69,16.991s-11.529,17.876-24.472,40.815a7.992,7.992,0,0,1-2.2,2.5A8.025,8.025,0,0,1-6043.4-5932,7.659,7.659,0,0,1-6046.779-5932.791Z" transform="translate(6797.184 6245.143)"></path><path class="h" d="M857.9,345.337s-12.867,2.685-23.629,33.884l24.22,14.112,8.93-17.419Z" transform="translate(-86.42 -98.577)"></path><g transform="translate(664.393 244.396)"><g transform="translate(67.227 38.11)"><path class="i" d="M833.964,411.97h-27.95v-4.4h27.95a2.219,2.219,0,0,1,2.238,2.2h0A2.219,2.219,0,0,1,833.964,411.97Z" transform="translate(-806.014 -407.573)"></path></g><path class="j" d="M767.309,383.712H703.62a3.406,3.406,0,0,1-3.255-2.347l-11.283-37.053a2.386,2.386,0,0,1,2.31-3.091h60.39a3.406,3.406,0,0,1,3.255,2.346Z" transform="translate(-688.968 -341.221)"></path><path class="a" d="M754.281,372.764a4.745,4.745,0,0,1-3.892,5.5,4.818,4.818,0,0,1-5.6-3.823,4.746,4.746,0,0,1,3.892-5.5A4.818,4.818,0,0,1,754.281,372.764Z" transform="translate(-712.693 -352.987)"></path></g><g transform="translate(828.644 278.684)"><path class="g" d="M974.938,413.414s15.371,54.5,21.642,101.914l10.552-1.965s-3.276-69.469-13.919-112.444Z" transform="translate(-974.938 -400.919)"></path><path class="g" d="M1019.927,592.55s15.88,23.03-3.178,33.382a3.072,3.072,0,0,1-3.77-.67l-.123-.143a2.938,2.938,0,0,1,.2-4.029c2.707-2.695,6.349-8.281.545-15.577,0,0-3.046.763-2.536,6.7a2.482,2.482,0,0,1-2.716,2.671h0a2.49,2.49,0,0,1-2.191-1.86c-1-3.915-2.653-13.626,3.72-18.843Z" transform="translate(-987.818 -482.484)"></path></g><path class="h" d="M971.361,345.337s9.833,2.816,20.316,35.427l-24.22,14.112-5.617-18.963Z" transform="translate(-140.719 -98.577)"></path><g transform="translate(768.521 238.743)"><path class="h" d="M930.9,338.513l-18.245-7.134-18.758.247L875.076,338.4a7.184,7.184,0,0,0-4.589,8.541l13.821,53.549h37.029L934.1,344.471A5.173,5.173,0,0,0,930.9,338.513Z" transform="translate(-870.26 -331.379)"></path><rect class="h" width="37.029" height="5.82" transform="translate(14.048 69.113)"></rect><line class="h" x1="6.354" y1="24.619" transform="translate(2.162 23.064)"></line><line class="h" y1="25.893" x2="5.901" transform="translate(55.67 23.064)"></line></g><g transform="translate(747.848 313.675)"><path class="k" d="M906.018,461.84H868.988s-17.943,4.466-29.95,87.012c-1.829,12.581-3.408,24.845-4.771,36.6h34.969l15.449-76.182,3.379.873,5.7,75.309h32.854l.686-40.683S924.347,478.555,906.018,461.84Z" transform="translate(-834.268 -461.84)"></path><line class="l" x1="11.507" y1="4.413" transform="translate(42.29 43.892)"></line></g><path class="m" d="M935.058,251.522c-1.639-6.1-2.234-5.013-7.745-17.156-3.292-7.254-5.84-10.17-7.358-11.343h0a23.19,23.19,0,0,0-30.541-.293h0c-1.444.945-4.158,3.686-7.767,11.637-5.51,12.143-6.107,11.051-7.745,17.156s.447,17.369,13.256,19.564a9.313,9.313,0,0,1-2.234-4.243s5.362,7.169,12.66,6.73h13.792c7.3.439,12.66-6.73,12.66-6.73a9.31,9.31,0,0,1-2.234,4.243C934.611,268.891,936.7,257.627,935.058,251.522Z" transform="translate(-103.084 -44.011)"></path><g transform="translate(782.568 174.819)"><path class="m" d="M934.016,238.741a19.654,19.654,0,1,1-39.3,0c0-11.1,8.8-18.657,19.649-18.657S934.016,227.638,934.016,238.741Z" transform="translate(-894.718 -220.084)"></path></g><path class="m" d="M898.682,249.681s7.15-9.494,5.5-19.111a13.881,13.881,0,0,0-6.689,9.394C896.112,246.734,898.682,249.681,898.682,249.681Z" transform="translate(-113.157 -49.728)"></path><path class="m" d="M952.418,249.389s-8.594-10.325-6.945-19.943a16.1,16.1,0,0,1,7.143,10.039C954,246.255,952.418,249.389,952.418,249.389Z" transform="translate(-133.664 -49.25)"></path><g transform="translate(785.512 194.553)"><ellipse class="n" cx="6.817" cy="6.696" rx="6.817" ry="6.696"></ellipse><ellipse class="n" cx="6.817" cy="6.696" rx="6.817" ry="6.696" transform="translate(19.308)"></ellipse><path class="n" d="M923.581,265.873s2.407-3.636,5.674,0" transform="translate(-909.946 -258.62)"></path></g><path class="o" d="M-6081.772-5899.137l-24.6-19.583,14.411-18.69,13.789,11.72,12.425-34.869s-3.508-4.438-4.2-17.13a1.963,1.963,0,0,1,1.149-1.874,2.015,2.015,0,0,1,2.742,1.125l1.776,5.3.432-17.613c.037-.75.541-1.8,1.516-1.844a1.624,1.624,0,0,1,1.894,1.432l.4,12.488,2.365-14.6a1.363,1.363,0,0,1,1.5-1.123,1.351,1.351,0,0,1,1.21,1.4l-.771,15.851,3.235-13.024a1.52,1.52,0,0,1,1.577-1.139,1.506,1.506,0,0,1,1.417,1.664l-1.665,14.291,6.431-8.893a1.451,1.451,0,0,1,2.144-.061,1.389,1.389,0,0,1,.189,1.693l-5.408,10.764s-.339,6.7-6.52,13.155h0l-8.9,51.7a11,11,0,0,1-.4,2.211,10.317,10.317,0,0,1-7.5,7.624,11.643,11.643,0,0,1-3.482.532A11.479,11.479,0,0,1-6081.772-5899.137Z" transform="translate(7124.63 6201.568)"></path><path class="c" d="M1275,339.64c18.057,2.866,37.875,20.671,37.875,20.671l-16.391,23.029-21.583-17.362Z" transform="translate(-273.971 -96.152)"></path><g transform="translate(952.469 240.278)"><path class="c" d="M1237.256,335.885l13.505,5.027c3.532,1.272,4.432,5.121,3.508,8.7l-6.242,75.884h-53.272l-4.1-78.355a5.174,5.174,0,0,1,3.2-5.958l18.245-7.134Z" transform="translate(-1190.524 -334.052)"></path><line class="p" y1="15.148" x2="1.246" transform="translate(61.718 25.059)"></line></g><path class="g" d="M1171.612,419.664s-14.475,55.249-18.093,102.926l-10.647-1.4s1.564-69.541,9.795-113.023Z" transform="translate(-217.773 -125.321)"></path><path class="c" d="M1177.086,348.01s-12,2.816-22.482,35.427l26.386,14.112,5.617-18.963Z" transform="translate(-222.766 -99.715)"></path><path class="o" d="M-6099.146-5930.349l5.626-2.2h.034l1.027-17.481a14.514,14.514,0,0,1-6.336-9.159q-.05-.248-.1-.5c-3.332,2.007-9.735-8.4-6.675-11.266,3.142-2.936,5.363,1.841,5.363,1.841l.055.3c-.426-4.545-.494-7.953-.494-7.953s-1.583-17.988,16.826-17.64,17.31,17.64,17.31,17.64c0,2.518-.126,4.914-.333,7.152.683-1.171,2.54-3.651,5.044-1.388,3.147,2.844-3.262,13.584-6.6,11.3-.043.2-.087.388-.131.577-.918,3.982-3.393,6.846-6.9,9.163l.967,17.449,6.094,1.8s-3.673,5.078-15.461,5.678c-.57.029-1.12.043-1.652.043C-6095.943-5924.995-6099.146-5930.349-6099.146-5930.349Z" transform="translate(7067.565 6172.827)"></path><path class="m" d="M1247.454,218.593c-6.018-4.181-17.473-.292-23.812,2.42a4.282,4.282,0,0,0-1.058-3.226c-10.885,3.28-9.518,9.368-8.757,11.312-2.134,2.2-5.067,7.7.5,19.237,0,0,3.108-9.85,1.786-17.688,5.16,2.293,19.167,7.785,28.069,4.29a47.534,47.534,0,0,0,2.96,13.4c3.368-8.46,2.9-13.553,1.556-16.546C1250.232,229.991,1254.752,223.663,1247.454,218.593Z" transform="translate(-246.822 -43.848)"></path><g transform="translate(944.581 331.726)"><path class="k" d="M1261.276,598.83h34.234c-12.643-53.067-22.564-89.749-22.564-89.749l-1.566-15.814h-25.992l1.175,55.55Z" transform="translate(-1205.988 -493.267)"></path><g transform="translate(0)"><path class="k" d="M1217.365,548.817l-1.175-55.55h-27.28c-20.418,30.012-8.862,83.344-8.862,83.344l3.111,22.219h34.205Z" transform="translate(-1176.791 -493.267)"></path><path class="l" d="M1247.433,569.6V553.86l7.729-11.76" transform="translate(-1206.859 -514.052)"></path></g></g><g transform="translate(842.8 310.677)"><path class="c" d="M1036.855,564.78s9.2-44.836,14.61-57.059a1.313,1.313,0,0,1,2.453.2c1.3,4.659,3.021,18.387,2.255,58.793l.017,16.516h32.283l4.757-39.748s7.191-55.4-16.233-86.864h-46.952s-23.94,34.2-27.094,81.443c-.7,10.51-1.911,26.564-3.367,45.169h33.263Z" transform="translate(-999.584 -456.62)"></path><line class="p" x2="10.995" y2="4.413" transform="translate(43.835 46.89)"></line></g><g transform="translate(863.927 222.899)"><path class="q" d="M1058.948,304.126l-22.58,6.1,9.334,75.705h47.38l9.346-76.037-25.03-6.1Z" transform="translate(-1036.368 -303.794)"></path><rect class="q" width="46.951" height="5.642" transform="translate(9.334 82.135)"></rect></g><path class="g" d="M1113.01,396.194s19.349-7.625,29.714-2.3l.977,12.235-31.594,3.9Z" transform="translate(-204.678 -118.44)"></path><path class="q" d="M1143.516,427.251s-31.413,3.705-56.869-9.417l21.563-6.415,26.641-4.4Z" transform="translate(-193.841 -124.831)"></path><g transform="translate(920.748 228.765)"><path class="q" d="M1143.008,314.007s12.2.767,19.978,24.494c8.263,25.212,8.863,45.062,3.128,48.391s-12.851-4.02-20.15-24.323-10.667-31.237-10.667-31.237Z" transform="translate(-1135.297 -314.007)"></path><line class="q" y1="15.295" x2="1.88" transform="translate(5.206 17.747)"></line></g><g transform="translate(837.043 229.329)"><path class="q" d="M1016.445,314.989s-12.2.767-19.978,24.494c-8.263,25.212-8.863,45.063-3.129,48.391s13.711-4.021,21.01-24.324,9.807-31.237,9.807-31.237Z" transform="translate(-989.561 -314.989)"></path><line class="q" x1="1.694" y1="13.831" transform="translate(29.014 17.183)"></line></g><path class="g" d="M1031.415,389.346a61.74,61.74,0,0,0-23.238-13.561,1.921,1.921,0,0,0-1.833.377h0a1.831,1.831,0,0,0,.448,3.06l8.721,4-11.447.75a3.242,3.242,0,0,0-3.074,3.612c.233,1.619,1.349,3.732,4.525,6.184Z" transform="translate(-157.37 -111.499)"></path><g transform="translate(840.821 274.276)"><path class="q" d="M1003.464,401.265s41.486-8.038,61.166-7.958l7.854,19.07s-61.406,15.121-76.345,8.832Z" transform="translate(-996.139 -393.271)"></path><path class="q" d="M1053.983,396.815s26.076-4,35.268-3.535l1.11,2.693" transform="translate(-1020.759 -393.244)"></path><path class="q" d="M1051.967,422.99l44.28-8.616L1089.5,398" transform="translate(-1019.901 -395.267)"></path></g><path class="m" d="M1049.055,246.24l-9.264,11.874s33.319,25.138,60.723-1.778l-9.776-11.716Z" transform="translate(-173.898 -55.709)"></path><g transform="translate(875.814 158.498)"><path class="m" d="M1097.4,210.817a20.171,20.171,0,1,1-40.332,0c0-11.4,9.029-19.148,20.166-19.148S1097.4,199.422,1097.4,210.817Z" transform="translate(-1057.064 -191.669)"></path></g><g transform="translate(983.678 134.483)"><path class="d" d="M1247.589,151.4a1.369,1.369,0,1,1-1.369-1.481A1.428,1.428,0,0,1,1247.589,151.4Z" transform="translate(-1244.861 -149.883)"></path><path class="d" d="M1257.778,151.368a1.369,1.369,0,1,1-1.369-1.48A1.428,1.428,0,0,1,1257.778,151.368Z" transform="translate(-1249.197 -149.87)"></path><path class="d" d="M1267.967,151.337a1.369,1.369,0,1,1-1.369-1.48A1.428,1.428,0,0,1,1267.967,151.337Z" transform="translate(-1253.534 -149.857)"></path></g><line class="r" x2="26.421" transform="translate(715.242 438.691)"></line><line class="r" x2="8.615" transform="translate(757.171 438.691)"></line><line class="r" x2="45.949" transform="translate(780.146 438.691)"></line><line class="r" x2="66.626" transform="translate(853.664 438.691)"></line><line class="r" x2="5.744" transform="translate(936.373 438.691)"></line><line class="r" x2="17.231" transform="translate(955.901 438.691)"></line><line class="r" x2="75.816" transform="translate(981.748 438.691)"></line><path class="d" d="M1378.348,313.422s6.76.029,6.887,5.991" transform="translate(-318 -84.993)"></path><path class="o" d="M-6092.764-5932.3a4.026,4.026,0,0,0,.061-.666l1.236-16.516c-3.827-2.4-6.492-5.53-7.35-9.82q-.049-.246-.1-.494c-3.321,2-9.707-8.378-6.655-11.23,3.13-2.928,5.346,1.836,5.346,1.836l.056.3c-.426-4.535-.493-7.937-.493-7.937s-1.579-17.936,16.775-17.586,17.258,17.586,17.258,17.586c0,2.512-.126,4.9-.333,7.135.678-1.166,2.529-3.649,5.03-1.389,3.139,2.834-3.254,13.544-6.578,11.263q-.065.294-.131.577c-.984,4.259-3.75,7.236-7.662,9.632l-.154.094,2.09,16.29a3.714,3.714,0,0,0,.051.587l-8.3,22Z" transform="translate(6979.271 6155.528)"></path><path class="m" d="M1095.44,208.723c-1.1-5.38-3.15-9.106-4.807-10.288-2.056-2-6.512-3.06-10.125-3.518,0,0-12.3-2.894-17.043,5.62-1.636,1.51-2.777,4.385-3.553,8.186-1.419,6.948,1.219,9.974,1.219,9.974a33.527,33.527,0,0,0,5.641-13.329c3.472,2.821,10.507,6.351,23.86,6.172a39.638,39.638,0,0,0,4.6,7.347S1096.858,215.671,1095.44,208.723Z" transform="translate(-182.284 -34.402)"></path><path class="o" d="M-6102.173-5929.829l8.229-2.964,2.013-17.887c-3.685-2.337-6.251-5.367-7.079-9.518q-.048-.241-.095-.482c-3.237,1.955-9.458-8.162-6.485-10.942,3.052-2.853,5.209,1.789,5.209,1.789l.055.3c-.415-4.42-.48-7.736-.48-7.736s-1.541-17.476,16.342-17.135,16.816,17.135,16.816,17.135c0,2.447-.123,4.775-.324,6.951.661-1.137,2.465-3.554,4.9-1.352,3.059,2.762-3.171,13.2-6.41,10.976q-.064.285-.127.561c-.958,4.15-3.653,7.05-7.464,9.385l-.171.1,2.057,17.607,7.55,2.951s.8,5.508-16.6,5.508S-6102.173-5929.829-6102.173-5929.829Z" transform="translate(6886.1 6171.781)"></path><path class="m" d="M890.628,237.783h43.289s-4.876-18.011-23.134-19.084S890.628,237.783,890.628,237.783Z" transform="translate(-110.409 -44.658)"></path></g></svg>